# xmcd
#
# Track frame offsets: 
#        150
#        19152
#        37862
#        54220
#        70012
#        82647
#        100037
#        117215
#        125827
#        139185
#        163000
#        175295
#        191205
#        207137
#        226782
#        235925
#        249580
#        260320
#        272177
#        286082
#
# Disc length: 4000 seconds
#
# Revision: 2
# Processed by: cddbd v1.5.2PL0 Copyright (c) Steve Scherf et al.
# Submitted via: ExactAudioCopy v1.0b6
#
DISCID=0b0f9e14
DTITLE=Ray Charles - Ray Charles - 20 Super Sucessos
DYEAR=1989
DGENRE=Other
TTITLE0=I Can't Stop Lovin' You
TTITLE1=Baby, It's Cold Outside
TTITLE2=Georgia On My Mind
TTITLE3=Cry
TTITLE4=Unchain My Heart
TTITLE5=Ruby
TTITLE6=Stella By Starlight
TTITLE7=Hit the Road Jack
TTITLE8=Eleanor Rigby
TTITLE9=People
TTITLE10=Yesterday
TTITLE11=Your Creatin' Heart
TTITLE12=Sweet Memories
TTITLE13=That Lucky Old Sun Just Rolls Around Heaven
TTITLE14=All to Myself
TTITLE15=I´m Going Down To The River
TTITLE16=I Wonder Who's Kissing Her Now
TTITLE17=C.C. Rieder
TTITLE18=Kiss Me Baby
TTITLE19=Baby Let Me Hold Your Hand
EXTD=
EXTT0=
EXTT1=
EXTT2=
EXTT3=
EXTT4=
EXTT5=
EXTT6=
EXTT7=
EXTT8=
EXTT9=
EXTT10=
EXTT11=
EXTT12=
EXTT13=
EXTT14=
EXTT15=
EXTT16=
EXTT17=
EXTT18=
EXTT19=
PLAYORDER=
